HIERARCHY
ROOT Hips
{
  OFFSET 265.287 66.7526 -254.649
  CHANNELS 6 Xposition Yposition Zposition Zrotation Xrotation Yrotation
  JOINT LeftUpLeg
  {
    OFFSET 8.64259 1.95398 -2.38835
    CHANNELS 3 Zrotation Xrotation Yrotation
    JOINT LeftLeg
    {
      OFFSET 43.7702 0 0
      CHANNELS 3 Zrotation Xrotation Yrotation
      JOINT LeftFoot
      {
        OFFSET 40.6238 0 0
        CHANNELS 3 Zrotation Xrotation Yrotation
        JOINT LeftToeBase
        {
          OFFSET 12.7242 0 0
          CHANNELS 3 Zrotation Xrotation Yrotation
          End Site
          {
            OFFSET 0 0 0
          }
        }
      }
    }
  }
  JOINT RightUpLeg
  {
    OFFSET -8.2249 1.95398 -2.59336
    CHANNELS 3 Zrotation Xrotation Yrotation
    JOINT RightLeg
    {
      OFFSET 43.5653 0 0
      CHANNELS 3 Zrotation Xrotation Yrotation
      JOINT RightFoot
      {
        OFFSET 40.6238 0 0
        CHANNELS 3 Zrotation Xrotation Yrotation
        JOINT RightToeBase
        {
          OFFSET 12.7242 0 0
          CHANNELS 3 Zrotation Xrotation Yrotation
          End Site
          {
            OFFSET 0 0 0
          }
        }
      }
    }
  }
  JOINT Spine
  {
    OFFSET 0.165834 0.87714 6.61349
    CHANNELS 3 Zrotation Xrotation Yrotation
    JOINT Spine1
    {
      OFFSET 7.38963 1.71661e-005 0
      CHANNELS 3 Zrotation Xrotation Yrotation
      JOINT Spine2
      {
        OFFSET 11.9445 1.14441e-005 0
        CHANNELS 3 Zrotation Xrotation Yrotation
        JOINT Spine3
        {
          OFFSET 14.7254 4.19617e-005 0
          CHANNELS 3 Zrotation Xrotation Yrotation
          JOINT Spine4
          {
            OFFSET 10.9679 0 0
            CHANNELS 3 Zrotation Xrotation Yrotation
            JOINT RightShoulder
            {
              OFFSET 2.46616 -1.6653 3.69651
              CHANNELS 3 Zrotation Xrotation Yrotation
              JOINT RightArm
              {
                OFFSET 13.0012 0 0
                CHANNELS 3 Zrotation Xrotation Yrotation
                JOINT RightForeArm
                {
                  OFFSET 28.7848 1.52588e-005 0
                  CHANNELS 3 Zrotation Xrotation Yrotation
                  JOINT RightHand
                  {
                    OFFSET 26.5688 1.52588e-005 0
                    CHANNELS 3 Zrotation Xrotation Yrotation
                    End Site
                    {
                      OFFSET 0 0 0
                    }
                  }
                }
              }
            }
            JOINT LeftShoulder
            {
              OFFSET 2.38034 -1.29275 -3.7523
              CHANNELS 3 Zrotation Xrotation Yrotation
              JOINT LeftArm
              {
                OFFSET 16.3182 6.10351e-005 0
                CHANNELS 3 Zrotation Xrotation Yrotation
                JOINT LeftForeArm
                {
                  OFFSET 27.0901 0 0
                  CHANNELS 3 Zrotation Xrotation Yrotation
                  JOINT LeftHand
                  {
                    OFFSET 24.5451 1.52588e-005 0
                    CHANNELS 3 Zrotation Xrotation Yrotation
                    End Site
                    {
                      OFFSET 0 0 0
                    }
                  }
                }
              }
            }
            JOINT Neck
            {
              OFFSET 5.0226 -0.0266342 0
              CHANNELS 3 Zrotation Xrotation Yrotation
              JOINT Head
              {
                OFFSET 6.69364 2.86102e-005 0
                CHANNELS 3 Zrotation Xrotation Yrotation
                End Site
                {
                  OFFSET 0 0 0
                }
              }
            }
          }
        }
      }
    }
  }
}
MOTION
Frames:	6
Frame Time:	0.0416667
207.098 96.2224 -215.339 -96.4093 -54.5352 -93.3481 -174.874 -10.5627 92.9103 -31.6627 31.0545 8.14582 56.4788 0.218429 8.5595 56.6376 -8.38425 1.36905 177.006 18.1663 88.144 -8.13697 -3.53009 0.404972 42.6102 8.92446 19.0433 30.1153 0.728806 -8.8543 -0.546679 7.61476 -90.4552 11.6398 -1.30068 -0.771905 -0.0306995 -1.33339 -0.71391 -22.5675 -1.00856 -1.12713 -2.55483 -1.00856 -1.12713 102.437 -51.6107 -81.7524 33.7767 2.98069 10.6422 -3.80577 -29.3412 -11.6486 -6.00125 -0.412026 3.07717 -82.5232 -52.6981 89.9886 -11.4315 20.1747 -39.4647 13.2177 21.3265 -30.439 8.6778 -0.123149 -4.70697 9.40021 1.36157 -3.04427 -12.9692 1.3402 8.02701 
199.081 95.6939 -208.347 -96.3122 -52.7695 -90.5813 -177.4 -7.1538 95.8009 -41.1775 18.0535 7.31053 42.6699 -4.78184 -2.28937 58.3087 -10.3775 -7.44842 176.622 22.3111 92.1163 -28.9254 -7.94233 1.52119 52.0233 6.81886 12.7042 31.4262 -0.346851 -0.477624 -0.552551 7.65674 -90.9348 11.5442 -1.53649 -1.70411 -0.126878 -1.61001 -1.63485 -22.6563 -0.953447 -2.08698 -2.64362 -0.953461 -2.087 102.059 -49.9589 -82.3314 34.2753 3.28973 7.37044 -2.74253 -28.0241 -8.78489 -5.42389 -0.334832 2.21387 -83.0793 -53.6694 89.2568 -15.744 19.2957 -33.9831 9.72827 26.3218 -21.5422 10.2336 -0.193624 -4.85469 9.69011 2.61233 -1.53899 -13.3063 2.16737 8.55813 
191.706 96.0857 -201.989 -96.8654 -54.1586 -91.0255 179.326 3.48602 94.4986 -59.752 12.5702 5.49789 44.5052 -3.65491 6.52305 53.0802 -8.14966 -5.53119 175.696 17.5136 93.196 -33.6423 -6.85358 2.39663 61.1111 3.47242 9.79219 32.84 -0.657262 0.927689 -0.457737 7.71713 -90.9915 11.4237 -1.37352 -1.83594 -0.247715 -1.45297 -1.77374 -22.7747 -0.758388 -2.16373 -2.76204 -0.758388 -2.16373 102.205 -50.3956 -82.1039 33.1433 1.00118 4.73527 -2.56302 -22.5694 -11.3749 -7.83924 -0.491653 2.29369 -83.4923 -53.5153 88.6428 -18.9055 19.2354 -32.7253 1.17187 33.7455 -7.03613 3.74639 0.193395 -1.18038 8.61741 1.53469 -1.96242 -12.9739 1.31808 7.33533 
184.72 97.2876 -195.576 -96.4838 -52.2722 -92.7248 -178.409 14.8665 89.6963 -59.9996 10.5268 2.67597 53.509 0.502418 10.5052 51.3621 -7.31967 -3.46839 175.8 10.4352 91.8646 -31.7298 -6.36592 1.24442 64.7114 3.24326 12.6443 32.1987 -0.683345 2.21003 0.0249643 7.78011 -90.7405 11.3122 -0.29538 -1.44611 -0.359494 -0.358744 -1.43172 -22.8881 0.152821 -1.46804 -2.87549 0.152836 -1.46804 102.552 -50.9043 -81.5697 30.5969 -2.00053 1.63589 -3.93932 -19.6043 -18.7261 -10.9456 -0.695795 2.2754 -83.5234 -53.9327 88.6371 -21.8685 17.677 -26.1546 -0.629481 39.5294 -3.66112 -0.740053 -0.0770621 -2.71068 7.53083 0.63456 -2.74277 -11.98 0.682437 6.72976 
178.432 97.7456 -189.459 -95.6888 -49.7765 -93.2773 -176.531 18.8634 87.2744 -39.9595 9.48298 0.8304 57.7537 1.92257 7.43883 53.7582 -7.11543 4.74803 175.264 3.2298 90.7147 -27.9207 -5.81798 0.612274 65.9549 3.8342 16.6736 33.3167 -0.786381 1.73826 0.336525 7.87756 -90.5536 11.1196 0.412862 -1.14187 -0.551833 0.362223 -1.15893 -23.0844 0.736945 -0.965018 -3.0718 0.736937 -0.96501 102.369 -50.0964 -81.8485 28.9171 -4.30429 -2.69419 -4.3635 -14.4472 -25.555 -12.043 -0.576666 0.396406 -83.3292 -54.548 88.9742 -22.3922 17.6304 -16.5055 -1.12886 32.9207 -4.12971 2.32263 -0.0831057 -4.18844 8.78867 0.451294 -2.3252 -12.475 0.466038 6.06018 
172.548 97.3891 -183.52 -91.9615 -47.1283 -89.6384 -176.568 19.73 87.499 -10.0473 11.6183 0.776735 52.2308 -0.856027 8.23083 45.7695 -5.06907 3.61852 175.613 -0.723738 91.4543 -25.298 -5.39808 0.16553 66.6202 3.06384 18.3293 35.5931 -1.08536 1.66496 0.611343 7.77191 -90.5776 11.3339 0.947373 -1.24489 -0.337364 0.891664 -1.28537 -22.8724 1.27767 -0.90263 -2.85973 1.27769 -0.902629 101.944 -49.6591 -82.513 26.1703 -5.7817 -8.94279 -5.48113 -13.4655 -30.111 -13.0582 -0.632613 0.451039 -83.2644 -54.3434 89.0491 -24.7062 15.8772 -10.0504 -1.56026 32.0075 -2.55874 2.25968 0.0236262 -1.63916 9.05805 0.439722 -2.95606 -10.8527 0.579126 7.61555 
